PathFileType	4	(X/Y/Z)	pose_F01_0-95.trc
DataRate	CameraRate	NumFrames	NumMarkers	Units	OrigDataRate	OrigDataStartFrame	OrigNumFrames
30	30	7	21	m	30	35	95
Frame#	Time	CHip			RHip			RKnee			RAnkle			RBigToe			RSmallToe			RHeel			LHip			LKnee			LAnkle			LBigToe			LSmallToe			LHeel			Neck			Nose			RShoulder			RElbow			RWrist			LShoulder			LElbow			LWrist			
		X1	Y1	Z1	X2	Y2	Z2	X3	Y3	Z3	X4	Y4	Z4	X5	Y5	Z5	X6	Y6	Z6	X7	Y7	Z7	X8	Y8	Z8	X9	Y9	Z9	X10	Y10	Z10	X11	Y11	Z11	X12	Y12	Z12	X13	Y13	Z13	X14	Y14	Z14	X15	Y15	Z15	X16	Y16	Z16	X17	Y17	Z17	X18	Y18	Z18	X19	Y19	Z19	X20	Y20	Z20	X21	Y21	Z21	
35	1.1666666666666667	-0.10662563464598608	1.8217970920401723	-0.6052637301899806	-0.1279665533045289	1.820033204132666	-0.5512516016157515	-0.15414475757781798	1.7033881376153643	-0.5674671614437665	-0.1464793395312366	1.5788676850642047	-0.5035628612217677	-0.18412343187504876	1.551373134137974	-0.5306724268379722	-0.1827034979241164	1.5549788566409084	-0.5028828092012643	-0.13708201156686042	1.568587285907867	-0.5000660565964249	-0.08162067500191986	1.8233878911007246	-0.650095698869878	-0.10111593882340313	1.7084229788550627	-0.6512301528173831	-0.09246406809893166	1.5876201870956104	-0.6223876833771108	-0.24538362591931973	1.4973171935031682	-1.177236213247897	-0.22781921468558008	1.4999540819380228	-1.203144061509683	-0.09220751052586305	1.5746837197089913	-0.604076387740223	-0.10475973389575488	1.9664270304717755	-0.6574224068815365	-0.12998776333171025	2.0288520773502063	-0.7038499362926165	-0.1399102437113664	1.967498907020553	-0.5912843945560163	-0.15103470198778612	1.8895239961092367	-0.5339742113032401	-0.16827846179152706	1.8237342303920736	-0.5017657510206951	-0.0637142715040625	1.966182237197246	-0.7181424113097987	-0.03795250868299955	1.8948192811111477	-0.7349720365432347	-0.08734200625143768	1.90344450911294	-0.7396256458406916
36	1.2	-0.1033505671210034	1.8244241460939186	-0.6049042354625628	-0.12569896347168433	1.8213608576731979	-0.5538870689273343	-0.14882235111795689	1.7075681966498162	-0.5695366699806534	-0.14239383365361505	1.5818413562761087	-0.5083903200520372	-0.17797090851860436	1.5550312116826788	-0.5379262043952555	-0.17861347780600392	1.558097732131058	-0.5077652162354641	-0.13424012800483656	1.5720899126282322	-0.4993763399524536	-0.07633966123213279	1.8247351731643677	-0.651794887337565	-0.09455998625852279	1.7080048921385904	-0.6458168601476605	-0.09019391689077236	1.5875322622178452	-0.6245365082195394	-0.24237036725308436	1.497566141532463	-1.178687575055545	-0.22554443619223785	1.5007591761796806	-1.2077386281973486	-0.08956254144234169	1.5745596137902556	-0.6022363314771838	-0.09589788712185306	1.970441343129068	-0.6557155303469604	-0.12260608506963222	2.0296509726384055	-0.7079131340451615	-0.1375501622780305	1.9690184253691085	-0.5934701515542447	-0.14670796177778853	1.8895826569949632	-0.5386838025527544	-0.16818618110729405	1.816642785757773	-0.5134067379322205	-0.05780782319251591	1.970898535084199	-0.7177968276234886	-0.031776930945847416	1.8966623685054405	-0.7457891291760294	-0.08235031707616974	1.9206932787064803	-0.7259985265433712
37	1.2333333333333334	-0.10354282071566306	1.8269403777666169	-0.6052909357903725	-0.12373036390535645	1.8254483832949902	-0.5567558608205272	-0.1493371862883214	1.7033548317990634	-0.5683615650475604	-0.14248380991468113	1.5825719849804625	-0.508649297846631	-0.17385783463704566	1.5563900307556096	-0.5513345237572205	-0.17854655273003361	1.5588279282040385	-0.5260195934403877	-0.13500182649991935	1.5717173086044607	-0.5028663750920657	-0.0766510994653097	1.8281076714934676	-0.6523607117800578	-0.09200922243792727	1.7088821606222127	-0.6486269752065569	-0.08874788074974166	1.5899114323999426	-0.622549358780814	-0.24076209355685071	1.49725177588069	-1.1856520929827639	-0.22540757886399485	1.502427583950091	-1.2076680512216214	-0.08921828934945965	1.5787378075965772	-0.6029608292992331	-0.09362894682850742	1.9741116032586834	-0.6589057181169519	-0.11941491910909378	2.032567457877233	-0.7075348271846733	-0.13037532706484456	1.973852542699103	-0.5980941530438587	-0.14534537236568734	1.8941472626069007	-0.5450139040731948	-0.16852013740488567	1.8220450280860283	-0.5229635123477083	-1.6323971198508291	1.8862753742689562	0.9997262724410764	-0.026606950501431005	1.8978473836135306	-0.7477847324302264	-0.06605092176964608	1.9215091522323293	-0.7427319333544896
38	1.2666666666666666	-0.10185886376452377	1.828586642581304	-0.6112570061732684	-0.12433060268815267	1.8268383128416914	-0.5603383724681303	-0.14384613170050095	1.7037668472240715	-0.5615254071395436	-0.14263605817773817	1.5808424211218397	-0.5079731975762982	-0.17313324261677382	1.552562863010586	-0.5468198945053335	-0.17482818704141265	1.5550376517021687	-0.5202710344329701	-0.13497914441109424	1.5713592475869305	-0.5027802605103845	-0.07786485769304093	1.8283855843085413	-0.6589818720565546	-0.09192208743273059	1.7081411589833435	-0.6484603921061015	-0.09015040624498208	1.5876106540205632	-0.6247052297026104	-0.24090273023015737	1.4978903527130312	-1.185483579319925	-0.22555110995495134	1.4987786783439296	-1.2069418796807176	-0.08809850178627028	1.5733012122648897	-0.6080610467697383	-1.7289959719574761	1.8879535691347382	1.1522526554352068	-0.11335212581879572	2.033959844988716	-0.7059198946418745	-0.12734810174267594	1.976311496946776	-0.5975830123460346	-0.14543915653864656	1.8984759794084305	-0.545669131947436	-0.1698034888631829	1.8359470203606711	-0.5196012143525589	-1.6431780294144	1.8864947491279178	1.0177680243596756	-0.027832193036388106	1.9004939769231397	-0.7547505849748231	-0.07103286139839517	1.9275301245025367	-0.7531846584524192
39	1.3	-0.10383441680764413	1.8311272258831068	-0.6094881219684581	-0.12404238807464732	1.8294586761116856	-0.5609589407640743	-0.14491390432074214	1.706209465356529	-0.5563997556574449	-0.1424701840694412	1.5824604705272107	-0.5085922384328675	-0.1739131969062706	1.5515629036075826	-0.5504372252115302	-0.17582508825423107	1.5551808300065022	-0.5236924901700084	-0.13492867532900837	1.5710681267020767	-0.5027818675667518	-0.07690368621104707	1.832338399716316	-0.656377830288502	-0.0896294733654661	1.7108078210869686	-0.6512164710647012	-0.08931739014474217	1.588472383221576	-0.6261924842664282	-0.11290952794276705	1.5617345369152313	-0.6608377893804857	-0.22561495704478216	1.5004106343159123	-1.2065468809467337	-0.08623408267754741	1.5729981038514493	-0.6145845506696231	-0.0870026374435337	1.9761613544778456	-0.6544147768599671	-0.10889145257772988	2.0323962753725664	-0.6991494866625405	-0.12420691135849052	1.9787767504523959	-0.5966630438896704	-0.14490646040932847	1.900900949108799	-0.5458030909331895	-0.17341309437963753	1.8355433234723335	-0.5270064720115993	-1.6559564221290954	1.8865480002162267	1.0384840452554827	-0.02348833733617735	1.8992033697260156	-0.7472026007874668	-0.06790157103695459	1.9238466034762585	-0.7521845419663885
40	1.3333333333333333	-0.10381265313715038	1.832499314104763	-0.6094669061705105	-0.1260352295307107	1.830599629062768	-0.5587127608801216	-0.14452244874311082	1.7063932347597237	-0.5566712398829098	-0.14233939536095788	1.5816046930060033	-0.5087824171563503	-0.17085993982760422	1.5537731690182053	-0.5499967879979116	-0.1755913348220217	1.5563545183055032	-0.5246243478565079	-0.13476692059483975	1.5700921864612216	-0.5030592206199235	-0.07877727103991512	1.8325088893090447	-0.653990443615747	-0.09064961026050682	1.7105829859425425	-0.6461407519680514	-0.08782957781742975	1.5898616284936777	-0.6192781859857773	-0.24312767529486465	1.4977607152010868	-1.182093456884446	-0.2255300742037618	1.502001368408955	-1.2089401619109563	-0.08640556852683091	1.5792209184917834	-0.6022849412199394	-0.08891905398703351	1.9773831700025963	-0.6519871698342268	-0.10662846879726925	2.0332887236875723	-0.7012156734587683	-0.12459850299743104	1.978620372847842	-0.588011116296303	-0.14948644662623775	1.9062429792428877	-0.5424428944940612	-0.17735872734779531	1.8399496836142597	-0.5287386179153762	-0.04886060951713415	1.9770680215438543	-0.7165778833215082	-0.025067557093219783	1.8990798373858477	-0.7415941308601882	-0.058691807686502	1.9188819617501696	-0.7582647954200235
41	1.3666666666666667	-0.1034325157377357	1.829628884912731	-0.5968520928827296	-0.12744495905287687	1.8289516704334012	-0.5527554601117168	-0.14395037808345681	1.7088850395647053	-0.5533091955359826	-0.1415796288350265	1.5822644989258503	-0.505184743187435	-0.17292632170764363	1.5543386080596817	-0.5474736548770142	-0.17494648001701452	1.555207844707289	-0.5205813386677497	-0.1342055187803384	1.571707513636556	-0.4992802990042992	-0.07726107955455933	1.8324107226677848	-0.6473537399878705	-0.09177881812504309	1.7134445804730185	-0.649232999880832	-0.08686809560168711	1.5923635893699812	-0.6162097309416625	-0.24317825343420116	1.5034133975502093	-1.183480181090496	-0.22571819488279088	1.5073825845469389	-1.2105122183505004	-0.08674347281275877	1.582017210126862	-0.6017728975262745	-1.7537917169199486	1.8901276938997815	1.1936645044459457	-0.10576209906000322	2.0361719450759885	-0.6985473777190785	-1.8074326260934477	1.8921508328878283	1.2810921361044532	-0.15306898854829995	1.9108312430205214	-0.5471435008575383	-0.18249181790082697	1.8414046741758516	-0.527837960199537	-1.7167686012235401	1.8882663864816318	1.1388444902265538	-0.028053324638842893	1.902741493846929	-0.7184775514164502	-0.06226508070159369	1.9153397213158205	-0.7374131026123943
